<?xml version="1.0" standalone="no"?>
<!DOCTYPE svg PUBLIC "-//W3C//DTD SVG 20010904//EN"
 "http://www.w3.org/TR/2001/REC-SVG-20010904/DTD/svg10.dtd">
<svg version="1.0" xmlns="http://www.w3.org/2000/svg"
 width="128.000000pt" height="103.000000pt" viewBox="0 0 128.000000 103.000000"
 preserveAspectRatio="xMidYMid meet">

<g transform="translate(0.000000,103.000000) scale(0.100000,-0.100000)"
fill="#000000" stroke="none">
<path d="M349 1007 c-74 -21 -138 -64 -170 -115 -16 -25 -29 -51 -29 -58 0 -6
-20 -34 -45 -62 -24 -27 -53 -69 -63 -93 -49 -115 -54 -291 -10 -379 22 -44
23 -52 10 -63 -28 -23 -42 -76 -42 -157 l0 -80 267 2 266 3 14 41 c12 35 23
46 73 73 65 35 89 58 49 48 -13 -4 -28 -7 -32 -7 -5 0 -5 -4 -2 -10 3 -6 -1
-7 -9 -4 -20 8 -20 9 0 39 17 26 7 34 -15 12 -11 -10 -12 -8 -8 8 4 11 9 34
12 50 4 17 14 47 23 68 13 32 19 37 36 32 12 -4 32 -7 46 -7 37 0 134 -26 230
-63 47 -18 92 -35 101 -38 9 -3 21 -24 27 -47 8 -34 7 -49 -8 -83 -10 -23 -21
-59 -24 -79 l-7 -38 121 0 120 0 0 58 c0 70 -8 79 -97 118 -65 27 -75 37 -47
48 9 3 12 11 8 18 -4 7 -4 10 1 6 14 -13 35 13 35 44 0 23 6 31 30 39 19 7 30
18 30 30 0 12 7 19 20 19 11 0 20 4 20 10 0 5 -8 7 -17 4 -17 -5 -17 -5 0 6
24 16 21 35 -10 59 -24 17 -26 22 -15 38 43 62 56 158 26 201 -8 12 -10 22 -5
22 6 0 11 9 11 21 0 22 -57 86 -73 81 -4 -1 -6 2 -3 7 9 14 -21 34 -62 40 -31
5 -39 12 -48 41 -20 62 -122 110 -231 110 -56 0 -94 -15 -151 -58 l-33 -25
-22 21 c-12 12 -39 28 -60 37 -52 22 -181 28 -238 12z m178 -13 c-3 -3 -12 -4
-19 -1 -8 3 -5 6 6 6 11 1 17 -2 13 -5z m272 2 c-2 -2 -15 -9 -29 -15 -24 -11
-24 -11 -6 3 16 13 49 24 35 12z m-222 -12 c-3 -3 -12 -4 -19 -1 -8 3 -5 6 6
6 11 1 17 -2 13 -5z m-347 -58 c0 -2 -8 -10 -17 -17 -16 -13 -17 -12 -4 4 13
16 21 21 21 13z m-40 -112 c0 -2 -7 -4 -15 -4 -8 0 -15 4 -15 10 0 5 7 7 15 4
8 -4 15 -8 15 -10z m430 -10 c0 -2 -9 -4 -21 -4 -11 0 -18 4 -14 10 5 8 35 3
35 -6z m337 10 c-3 -3 -12 -4 -19 -1 -8 3 -5 6 6 6 11 1 17 -2 13 -5z m-237
-16 c0 -10 -9 -9 -35 2 -17 8 -16 8 8 7 15 -1 27 -5 27 -9z m187 6 c-3 -3 -12
-4 -19 -1 -8 3 -5 6 6 6 11 1 17 -2 13 -5z m166 -1 c-7 -2 -19 -2 -25 0 -7 3
-2 5 12 5 14 0 19 -2 13 -5z m74 1 c-3 -3 -12 -4 -19 -1 -8 3 -5 6 6 6 11 1
17 -2 13 -5z m-877 -24 c19 -11 31 -19 25 -19 -5 0 -26 8 -45 19 -19 11 -30
19 -25 19 6 0 26 -8 45 -19z m290 10 c-8 -5 -19 -10 -25 -10 -5 0 -3 5 5 10 8
5 20 10 25 10 6 0 3 -5 -5 -10z m440 -11 c-19 -12 -46 -31 -59 -43 -13 -11
-21 -15 -17 -8 10 18 86 72 100 72 6 0 -5 -10 -24 -21z m190 11 c8 -5 11 -10
5 -10 -5 0 -17 5 -25 10 -8 5 -10 10 -5 10 6 0 17 -5 25 -10z m-717 -15 l47
-7 -29 -33 c-16 -18 -30 -38 -33 -45 -3 -11 -147 48 -148 61 0 12 74 39 95 34
11 -2 41 -7 68 -10z m440 -2 c-7 -2 -19 -2 -25 0 -7 3 -2 5 12 5 14 0 19 -2
13 -5z m-289 -34 c28 -20 61 -33 90 -36 57 -7 86 -38 86 -92 -1 -43 -16 -65
-51 -74 -29 -7 -39 5 -39 49 0 62 -46 92 -151 101 -38 3 -69 9 -69 13 0 17 64
69 87 70 1 0 22 -14 47 -31z m161 23 c-2 -3 7 -21 20 -41 14 -19 25 -42 25
-51 -1 -8 -7 0 -15 17 -8 18 -25 44 -38 57 -21 21 -22 24 -6 23 10 -1 16 -3
14 -5z m461 -7 c20 -19 5 -19 -20 0 -11 9 -14 15 -7 15 7 0 19 -7 27 -15z
m-207 2 c-19 -15 -79 -47 -79 -43 0 8 62 46 74 46 5 0 7 -1 5 -3z m-692 -52
l78 -36 -3 -44 c-2 -25 -6 -45 -8 -45 -11 0 -136 104 -145 121 -5 10 -14 19
-20 19 -6 0 -8 -4 -5 -9 4 -5 -3 -7 -15 -4 -20 5 -20 6 3 18 32 18 28 19 115
-20z m864 25 c43 -24 65 -112 39 -161 -16 -29 -37 -9 -45 43 -9 50 -38 82 -68
72 -78 -23 -151 -173 -99 -203 26 -16 5 -13 -26 3 -37 19 -67 54 -80 93 -15
46 -6 68 29 71 17 1 54 15 82 29 54 28 126 60 140 62 5 1 17 -4 28 -9z m-661
-100 c0 -13 -37 -13 -45 0 -3 6 -3 15 0 20 7 12 45 -5 45 -20z m565 10 c3 -5
1 -10 -4 -10 -6 0 -11 5 -11 10 0 6 2 10 4 10 3 0 8 -4 11 -10z m-207 -45 c2
-18 -3 -21 -43 -20 -40 0 -45 2 -45 23 0 21 4 23 43 20 33 -2 43 -7 45 -23z
m-537 -2 c13 -16 12 -17 -3 -4 -17 13 -22 21 -14 21 2 0 10 -8 17 -17z m802
-18 c-6 -16 -16 -19 -26 -8 -9 8 13 34 24 28 4 -3 6 -12 2 -20z m-515 -3 c2
-7 -3 -12 -12 -12 -9 0 -16 7 -16 16 0 17 22 14 28 -4z m-217 -29 c13 -17 13
-17 -6 -3 -11 8 -22 16 -24 17 -2 2 0 3 6 3 6 0 17 -8 24 -17z m471 1 c49 -25
20 -37 -41 -16 -28 10 -49 21 -45 25 12 12 53 8 86 -9z m-112 -34 c-6 -11 -13
-20 -16 -20 -2 0 0 9 6 20 6 11 13 20 16 20 2 0 0 -9 -6 -20z m420 6 c0 -3 -4
-8 -10 -11 -5 -3 -10 -1 -10 4 0 6 5 11 10 11 6 0 10 -2 10 -4z m-1203 -38
c-3 -7 -5 -2 -5 12 0 14 2 19 5 13 2 -7 2 -19 0 -25z m743 -13 c0 -2 -18 -14
-40 -25 -22 -11 -40 -18 -40 -15 0 2 17 13 38 24 42 23 42 23 42 16z m452 -2
c-6 -2 -10 -9 -6 -14 3 -5 -7 -9 -23 -9 l-28 0 25 14 c14 8 30 14 35 14 6 0 4
-2 -3 -5z m-234 -20 c-16 -2 -40 -2 -55 0 -16 2 -3 4 27 4 30 0 43 -2 28 -4z
m272 -7 c0 -2 -7 -7 -16 -10 -8 -3 -12 -2 -9 4 6 10 25 14 25 6z m-403 -12
c-3 -3 -12 -4 -19 -1 -8 3 -5 6 6 6 11 1 17 -2 13 -5z m-172 -14 c4 -6 -6 -10
-22 -10 -22 0 -25 2 -13 10 19 12 27 12 35 0z m102 4 c-3 -3 -12 -4 -19 -1 -8
3 -5 6 6 6 11 1 17 -2 13 -5z m238 -4 c-4 -7 -24 -8 -49 -5 -30 5 -66 0 -118
-14 -58 -16 -81 -19 -99 -11 -23 10 -23 10 5 6 16 -2 56 4 90 14 68 21 181 27
171 10z m98 3 c-7 -2 -21 -2 -30 0 -10 3 -4 5 12 5 17 0 24 -2 18 -5z m90 0
c-7 -2 -19 -2 -25 0 -7 3 -2 5 12 5 14 0 19 -2 13 -5z m-36 -30 c-20 -2 -52
-2 -70 0 -17 2 0 4 38 4 39 0 53 -2 32 -4z m-600 -9 c-3 -3 -12 -4 -19 -1 -8
3 -5 6 6 6 11 1 17 -2 13 -5z m90 0 c-3 -3 -12 -4 -19 -1 -8 3 -5 6 6 6 11 1
17 -2 13 -5z m356 -1 c-7 -2 -19 -2 -25 0 -7 3 -2 5 12 5 14 0 19 -2 13 -5z
m44 -9 c-3 -3 -12 -4 -19 -1 -8 3 -5 6 6 6 11 1 17 -2 13 -5z m-230 -10 c-3
-3 -12 -4 -19 -1 -8 3 -5 6 6 6 11 1 17 -2 13 -5z m136 -1 c-7 -2 -19 -2 -25
0 -7 3 -2 5 12 5 14 0 19 -2 13 -5z m200 0 c-18 -2 -48 -2 -65 0 -18 2 -4 4
32 4 36 0 50 -2 33 -4z m-686 -29 c-3 -3 -12 -4 -19 -1 -8 3 -5 6 6 6 11 1 17
-2 13 -5z m143 -4 c0 -5 -5 -10 -11 -10 -5 0 -7 5 -4 10 3 6 8 10 11 10 2 0 4
-4 4 -10z m337 4 c-3 -3 -12 -4 -19 -1 -8 3 -5 6 6 6 11 1 17 -2 13 -5z m-863
-73 c-3 -3 -15 6 -27 18 l-22 24 27 -19 c14 -10 24 -21 22 -23z m496 5 c0 -2
-8 -10 -17 -17 -16 -13 -17 -12 -4 4 13 16 21 21 21 13z m-460 -48 c0 -5 -9
-4 -20 2 -11 6 -20 12 -20 14 0 2 9 2 20 -1 11 -3 20 -9 20 -15z m217 -4 c-3
-3 -12 -4 -19 -1 -8 3 -5 6 6 6 11 1 17 -2 13 -5z m-182 -22 c-3 -3 -11 0 -18
7 -9 10 -8 11 6 5 10 -3 15 -9 12 -12z m182 -8 c-3 -3 -12 -4 -19 -1 -8 3 -5
6 6 6 11 1 17 -2 13 -5z m153 2 c0 -2 -7 -7 -16 -10 -8 -3 -12 -2 -9 4 6 10
25 14 25 6z m-253 -12 c-3 -3 -12 -4 -19 -1 -8 3 -5 6 6 6 11 1 17 -2 13 -5z
m66 -11 c-7 -2 -21 -2 -30 0 -10 3 -4 5 12 5 17 0 24 -2 18 -5z m70 -10 c-7
-2 -19 -2 -25 0 -7 3 -2 5 12 5 14 0 19 -2 13 -5z"/>
</g>
</svg>
